<?xml version="1.0" encoding="utf-8"?>
<!-- Generator: Adobe Illustrator 22.1.0, SVG Export Plug-In . SVG Version: 6.00 Build 0)  -->
<svg version="1.1" id="Layer_1" xmlns="http://www.w3.org/2000/svg" xmlns:xlink="http://www.w3.org/1999/xlink" x="0px" y="0px"
	 viewBox="0 0 79.5 26.3" style="enable-background:new 0 0 79.5 26.3;" xml:space="preserve">
<path d="M49,3.4c-0.4-0.4-1-0.4-1.4,0L30.1,20.8c-0.4,0.4-0.4,1,0,1.4c0.2,0.2,0.5,0.3,0.7,0.3s0.5-0.1,0.7-0.3l5.2-5.2
	c0.2,0,0.4,0,0.6,0c1.6,0,3.1-0.6,4.2-1.6l0.3,0.3v0.8l5,5l1.5-1.5l-5-5h-0.8l-0.3-0.3c1-1.1,1.6-2.6,1.6-4.2c0-0.2,0-0.4,0-0.6
	L49,4.7C49.4,4.4,49.4,3.8,49,3.4z M39.1,14.7l2.4-2.4C41,13.4,40.2,14.3,39.1,14.7z M34.3,13.9c-0.9-0.8-1.5-2-1.5-3.3
	c0-2.5,2-4.5,4.5-4.5c1.3,0,2.5,0.6,3.3,1.5L42,6.2c-1.2-1.3-2.9-2-4.7-2c-3.6,0-6.5,2.9-6.5,6.5c0,1.9,0.8,3.5,2,4.7L34.3,13.9z"/>
<path d="M69.9,15.1h-0.8l-0.3-0.3c1-1.1,1.6-2.6,1.6-4.2c0-3.6-2.9-6.5-6.5-6.5c-3.6,0-6.5,2.9-6.5,6.5s2.9,6.5,6.5,6.5
	c1.6,0,3.1-0.6,4.2-1.6l0.3,0.3v0.8l5,5l1.5-1.5L69.9,15.1z M63.9,15.1c-2.5,0-4.5-2-4.5-4.5s2-4.5,4.5-4.5s4.5,2,4.5,4.5
	S66.4,15.1,63.9,15.1z M72.9,12.1h2v2h-2V12.1z M72.9,4.1h2v6h-2V4.1z"/>
<path d="M16.7,15.6l5,5l-1.5,1.5l-5-5v-0.8L15,16c-1.1,1-2.6,1.6-4.2,1.6c-3.6,0-6.5-2.9-6.5-6.5c0-3.6,2.9-6.5,6.5-6.5
	c0.7,0,1.5,0.1,2.1,0.4L11.8,6l1.3,1.3c-0.7-0.4-1.5-0.7-2.3-0.7c-2.5,0-4.5,2-4.5,4.5s2,4.5,4.5,4.5c1.7,0,3.2-1,4-2.4l1.3,1.3
	l0.4-0.4c-0.2,0.4-0.5,0.9-0.8,1.2l0.3,0.3H16.7z M21.7,6l-1.4-1.4l-2.1,2.1l-2.1-2.1L14.7,6l2.1,2.1l-2.1,2.1l1.4,1.4l2.1-2.1
	l2.1,2.1l1.4-1.4l-2.1-2.1L21.7,6z"/>
</svg>
