<svg xmlns="http://www.w3.org/2000/svg" viewBox="0 0 239.25 36.53"><defs><style>.a{fill:#ffffff;}.b{fill:#9e9e9e;}.c{fill:#ff5722;}.d,.e{fill:none;stroke-miterlimit:10;stroke-width:1.5px;}.d{stroke:#ffffff;}.e{stroke:#ff5722;}</style></defs><title>GenemoLogo</title><rect class="a" width="32.68" height="7.35"/><polygon class="b" points="32.68 21.94 32.68 36.53 0 36.53 0 7.36 8.17 7.36 8.17 29.18 24.51 29.18 24.51 21.94 32.68 21.94"/><polygon class="b" points="73.53 29.18 73.53 36.53 40.85 36.53 40.85 7.36 49.02 7.36 49.02 29.18 73.53 29.18"/><rect class="a" x="82.86" width="32.68" height="7.35"/><rect class="a" x="123.71" width="32.68" height="7.35"/><rect class="b" x="177.98" y="14.59" width="8.17" height="21.94"/><polygon class="b" points="198.41 0 198.41 36.53 190.24 36.53 190.24 7.36 173.9 7.36 173.9 36.53 165.73 36.53 165.73 0 198.41 0"/><rect class="a" x="40.85" width="32.68" height="7.35"/><rect class="c" x="12.26" y="14.59" width="20.42" height="7.35"/><rect class="c" x="53.1" y="14.59" width="20.42" height="7.35"/><rect class="b" x="123.71" y="7.36" width="8.17" height="21.82"/><polygon class="b" points="206.57 0 206.57 7.36 206.57 29.18 214.74 29.18 214.74 7.36 231.08 7.36 231.08 29.18 239.25 29.18 239.25 7.36 239.25 0 206.57 0"/><rect class="c" x="135.97" y="14.59" width="20.42" height="7.35"/><rect class="a" x="123.71" y="29.18" width="32.68" height="7.35"/><rect class="a" x="206.57" y="29.18" width="32.68" height="7.35"/><rect class="b" x="82.86" y="7.36" width="8.17" height="29.18"/><rect class="b" x="107.37" y="7.36" width="8.17" height="29.18"/><line class="d" y1="3.68" x2="152.89" y2="3.68"/><line class="e" x1="22.57" y1="18.27" x2="148.22" y2="18.27"/><line class="d" x1="140.05" y1="32.86" x2="224.37" y2="32.86"/></svg>
