<svg xmlns="http://www.w3.org/2000/svg" viewBox="0 0 239.25 52.79"><defs><style>.a{fill:#3f51b5;}.b{fill:#757575;}.c{fill:#ff5722;}.d,.e{fill:none;stroke-miterlimit:10;stroke-width:1.5px;}.d{stroke:#3f51b5;}.e{stroke:#ff5722;}</style></defs><title>GenemoLogo</title><rect class="a" width="32.68" height="7.35"/><polygon class="b" points="32.68 21.94 32.68 36.53 0 36.53 0 7.36 8.17 7.36 8.17 29.18 24.51 29.18 24.51 21.94 32.68 21.94"/><polygon class="b" points="73.53 29.18 73.53 36.53 40.85 36.53 40.85 7.36 49.02 7.36 49.02 29.18 73.53 29.18"/><rect class="a" x="82.86" width="32.68" height="7.35"/><rect class="a" x="123.71" width="32.68" height="7.35"/><rect class="b" x="177.98" y="14.59" width="8.17" height="21.94"/><polygon class="b" points="198.41 0 198.41 36.53 190.24 36.53 190.24 7.36 173.9 7.36 173.9 36.53 165.73 36.53 165.73 0 198.41 0"/><rect class="a" x="40.85" width="32.68" height="7.35"/><rect class="c" x="12.26" y="14.59" width="20.42" height="7.35"/><rect class="c" x="53.1" y="14.59" width="20.42" height="7.35"/><rect class="b" x="123.71" y="7.36" width="8.17" height="21.82"/><polygon class="b" points="206.57 0 206.57 7.36 206.57 29.18 214.74 29.18 214.74 7.36 231.08 7.36 231.08 29.18 239.25 29.18 239.25 7.36 239.25 0 206.57 0"/><rect class="c" x="135.97" y="14.59" width="20.42" height="7.35"/><rect class="a" x="123.71" y="29.18" width="32.68" height="7.35"/><rect class="a" x="206.57" y="29.18" width="32.68" height="7.35"/><rect class="b" x="82.86" y="7.36" width="8.17" height="29.18"/><rect class="b" x="107.37" y="7.36" width="8.17" height="29.18"/><line class="d" y1="3.68" x2="152.89" y2="3.68"/><line class="e" x1="22.57" y1="18.27" x2="148.22" y2="18.27"/><line class="d" x1="140.05" y1="32.86" x2="224.37" y2="32.86"/><path class="b" d="M177.75,56.15l2.63-.45q.47,1.78,3.63,1.78a4.4,4.4,0,0,0,2.21-.46A1.32,1.32,0,0,0,187,55.9a1.38,1.38,0,0,0-.35-.91,2.73,2.73,0,0,0-1.5-.65l-2.87-.6a8.14,8.14,0,0,1-2.18-.7,3,3,0,0,1-1.13-1.1,3,3,0,0,1,1.07-4.1,6.89,6.89,0,0,1,3.82-1,8.42,8.42,0,0,1,3.46.68,3.29,3.29,0,0,1,1.94,1.92l-2.57.51q-.59-1.36-2.77-1.36A3.62,3.62,0,0,0,182,49a1.24,1.24,0,0,0-.66,1.07q0,1,2.09,1.44L186,52a5.6,5.6,0,0,1,3.11,1.38,3,3,0,0,1,.79,2,3.12,3.12,0,0,1-1.66,2.78,8.19,8.19,0,0,1-4.31,1,9.51,9.51,0,0,1-3.91-.75A3.9,3.9,0,0,1,177.75,56.15Z" transform="translate(-5.37 -6.44)"/><path class="b" d="M199.09,56.22l2.26.25a3.9,3.9,0,0,1-1.71,2,6,6,0,0,1-3.2.78A5.41,5.41,0,0,1,192.73,58a4.25,4.25,0,0,1-1.41-3.36,4.36,4.36,0,0,1,1.42-3.33A5.42,5.42,0,0,1,196.58,50a5,5,0,0,1,3.67,1.3,4.53,4.53,0,0,1,1.3,3.34v.23h-7.61a4,4,0,0,0,.21,1.45,2,2,0,0,0,.85.95,2.92,2.92,0,0,0,1.59.4A2.48,2.48,0,0,0,199.09,56.22Zm-.15-2.65a2,2,0,0,0-.72-1.56,2.6,2.6,0,0,0-1.75-.61,2.63,2.63,0,0,0-1.72.57,2.32,2.32,0,0,0-.81,1.6Z" transform="translate(-5.37 -6.44)"/><path class="b" d="M213.33,59h-2.38a6,6,0,0,1-.38-1.79,3.81,3.81,0,0,1-3.76,2,4.24,4.24,0,0,1-2.66-.78,2.38,2.38,0,0,1-1-2q0-3.06,6.71-3.06h.71v-.67q0-1.38-2.35-1.38t-2.59,1.38l-2.13-.25a2.59,2.59,0,0,1,1.43-1.82,7.41,7.41,0,0,1,3.63-.72,10.49,10.49,0,0,1,2.1.17,3.53,3.53,0,0,1,1.37.58,2.29,2.29,0,0,1,.77.89,4.35,4.35,0,0,1,.21,1.62v4A5.31,5.31,0,0,0,213.33,59Zm-2.77-4.52q-4.86,0-4.86,1.85a1.17,1.17,0,0,0,.49.94,2.34,2.34,0,0,0,1.48.39,2.94,2.94,0,0,0,2.16-.73,2.26,2.26,0,0,0,.73-1.65Z" transform="translate(-5.37 -6.44)"/><path class="b" d="M218.5,59H216V50.17h2.26v2.12a3.73,3.73,0,0,1,1.33-1.81,3.07,3.07,0,0,1,1.74-.57h.33v2.15a2.79,2.79,0,0,0-2.53,1,3.52,3.52,0,0,0-.62,1.89Z" transform="translate(-5.37 -6.44)"/><path class="b" d="M229.75,55.78l2.15.18a4,4,0,0,1-1.62,2.47,5.08,5.08,0,0,1-2.89.8,4.57,4.57,0,0,1-3.53-1.34,4.66,4.66,0,0,1-1.24-3.28A4.42,4.42,0,0,1,224,51.29a5,5,0,0,1,3.6-1.31q3.63,0,4.32,3.06l-2.15.24a1.83,1.83,0,0,0-2-1.65,2,2,0,0,0-1.85.89,3.89,3.89,0,0,0-.58,2.16,3.19,3.19,0,0,0,.6,2.07,2,2,0,0,0,1.68.73A2.15,2.15,0,0,0,229.75,55.78Z" transform="translate(-5.37 -6.44)"/><path class="b" d="M243.12,59h-2.5V53.24a1.57,1.57,0,0,0-.5-1.32,1.87,1.87,0,0,0-1.17-.38,2.52,2.52,0,0,0-1.79.68,2.94,2.94,0,0,0-.73,2.23V59h-2.5V47h2.5v4.68a3.34,3.34,0,0,1,3.27-1.92q3.42,0,3.42,3.14Z" transform="translate(-5.37 -6.44)"/></svg>