<?xml version="1.0" encoding="utf-8"?>
<!-- Generator: Adobe Illustrator 22.0.1, SVG Export Plug-In . SVG Version: 6.00 Build 0)  -->
<svg version="1.1" id="Layer_1" focusable="false" xmlns="http://www.w3.org/2000/svg" xmlns:xlink="http://www.w3.org/1999/xlink"
	 x="0px" y="0px" viewBox="0 0 24 24" style="enable-background:new 0 0 24 24;" xml:space="preserve">
      <g>
        <path d="M15.8,14.3l5,5l-1.5,1.5l-5-5V15L14,14.7c-1.1,1-2.6,1.6-4.2,1.6c-3.6,0-6.5-2.9-6.5-6.5c0-3.6,2.9-6.5,6.5-6.5
        	c0.7,0,1.5,0.1,2.1,0.4l-1.1,1.1l1.3,1.3c-0.7-0.4-1.5-0.7-2.3-0.7c-2.5,0-4.5,2-4.5,4.5s2,4.5,4.5,4.5c1.7,0,3.2-1,4-2.4l1.3,1.3
        	l0.4-0.4c-0.2,0.4-0.5,0.9-0.8,1.2l0.3,0.3H15.8z M20.7,4.7l-1.4-1.4l-2.1,2.1l-2.1-2.1l-1.4,1.4l2.1,2.1l-2.1,2.1l1.4,1.4l2.1-2.1
        	l2.1,2.1l1.4-1.4l-2.1-2.1L20.7,4.7z"/>
      </g>
</svg>
