<?xml version="1.0" encoding="utf-8"?>
<!-- Generator: Adobe Illustrator 22.0.1, SVG Export Plug-In . SVG Version: 6.00 Build 0)  -->
<svg version="1.1" id="Layer_1" focusable="false" xmlns="http://www.w3.org/2000/svg" xmlns:xlink="http://www.w3.org/1999/xlink"
	 x="0px" y="0px" viewBox="0 0 24 24" style="enable-background:new 0 0 24 24;" xml:space="preserve">
<g>
	<path d="M12,4.5C7,4.5,2.7,7.6,1,12c1.7,4.4,6,7.5,11,7.5s9.3-3.1,11-7.5C21.3,7.6,17,4.5,12,4.5z M12,17c-2.8,0-5-2.2-5-5
		s2.2-5,5-5s5,2.2,5,5S14.8,17,12,17z M12,9c-1.7,0-3,1.3-3,3s1.3,3,3,3s3-1.3,3-3S13.7,9,12,9z"/>
</g>
</svg>
