<?xml version="1.0" encoding="utf-8"?>
<!-- Generator: Adobe Illustrator 22.0.1, SVG Export Plug-In . SVG Version: 6.00 Build 0)  -->
<svg version="1.1" id="Layer_1" focusable="false" xmlns="http://www.w3.org/2000/svg" xmlns:xlink="http://www.w3.org/1999/xlink"
	 x="0px" y="0px" viewBox="0 0 24 24" style="enable-background:new 0 0 24 24;" xml:space="preserve">
<g>
	<path d="M12,17c1.1,0,2-0.9,2-2s-0.9-2-2-2s-2,0.9-2,2S10.9,17,12,17z M18,8h-1V6c0-2.8-2.2-5-5-5S7,3.2,7,6v2H6c-1.1,0-2,0.9-2,2
		v10c0,1.1,0.9,2,2,2h12c1.1,0,2-0.9,2-2V10C20,8.9,19.1,8,18,8z M8.9,6c0-1.7,1.4-3.1,3.1-3.1s3.1,1.4,3.1,3.1v2H8.9V6z M18,20H6
		V10h12V20z"/>
</g>
</svg>
